<?xml version="1.0" encoding="utf-8"?>
<!-- Generator: Adobe Illustrator 27.6.0, SVG Export Plug-In . SVG Version: 6.00 Build 0)  -->
<svg version="1.1" id="Layer_1" xmlns="http://www.w3.org/2000/svg" xmlns:xlink="http://www.w3.org/1999/xlink" x="0px" y="0px"
	 viewBox="0 0 1205 150" style="enable-background:new 0 0 1205 150;" xml:space="preserve">
<style type="text/css">
	.st0{clip-path:url(#SVGID_00000045611692701116445490000009468491713475533968_);}
	.st1{fill:#FFFFFF;}
	.st2{fill:#C9BDE5;}
</style>
<g>
	<defs>
		<rect id="SVGID_1_" x="23" y="22" width="112" height="109"/>
	</defs>
	<clipPath id="SVGID_00000043418469896920443980000017583932382600338833_">
		<use xlink:href="#SVGID_1_"  style="overflow:visible;"/>
	</clipPath>
	<g style="clip-path:url(#SVGID_00000043418469896920443980000017583932382600338833_);">
		<path class="st1" d="M135,76.5c0,30-25.1,54.5-56,54.5V76.5L135,76.5z"/>
		<path class="st1" d="M79,76.5c0-30,25.1-54.5,56-54.5v54.5H79z"/>
		<path class="st2" d="M23,76.5c0,30,25.1,54.5,56,54.5V76.5L23,76.5z"/>
		<path class="st2" d="M79,76.5C79,46.5,53.9,22,23,22v54.5H79z"/>
	</g>
</g>
<path class="st1" d="M1085.9,44.3V20.5h94.8v23.8h-32.8v85.2h-29.2V44.3H1085.9z"/>
<path class="st1" d="M968.9,129.5v-109h29.6v42.6h39.2V20.5h29.6v109h-29.6V86.9h-39.2v42.6H968.9z"/>
<path class="st1" d="M916.4,56.5c-0.5-1.9-1.2-3.5-2.2-5c-1-1.5-2.2-2.7-3.7-3.7c-1.5-1-3.2-1.8-5.1-2.3c-1.9-0.5-4-0.8-6.3-0.8
	c-5,0-9.2,1.2-12.7,3.6c-3.5,2.4-6.1,5.8-8,10.3c-1.8,4.5-2.7,9.9-2.7,16.2c0,6.4,0.9,11.9,2.6,16.4c1.7,4.5,4.3,8,7.8,10.4
	c3.4,2.4,7.7,3.6,12.8,3.6c4.5,0,8.3-0.7,11.2-2c3-1.3,5.3-3.2,6.8-5.6c1.5-2.4,2.2-5.3,2.2-8.5l5.1,0.5h-24.9V68.6h48.3v15.1
	c0,9.9-2.1,18.4-6.3,25.5c-4.2,7-10,12.4-17.4,16.2c-7.3,3.7-15.8,5.6-25.3,5.6c-10.6,0-19.9-2.3-27.9-6.8
	c-8-4.5-14.3-10.9-18.8-19.3c-4.5-8.3-6.7-18.3-6.7-29.8c0-9,1.4-17,4.1-24c2.8-7,6.6-12.8,11.5-17.6c4.9-4.8,10.6-8.5,17-10.9
	c6.4-2.5,13.3-3.7,20.7-3.7c6.5,0,12.5,0.9,18,2.8c5.6,1.8,10.5,4.4,14.7,7.8c4.3,3.3,7.8,7.3,10.4,11.9c2.6,4.6,4.2,9.6,4.8,15.1
	H916.4z"/>
<path class="st1" d="M824.1,20.5v109h-29.6v-109H824.1z"/>
<path class="st1" d="M746,54.6c-0.3-3.5-1.6-6.3-4-8.3c-2.3-2-5.9-3-10.7-3c-3.1,0-5.6,0.4-7.5,1.1c-1.9,0.7-3.3,1.7-4.3,2.9
	c-0.9,1.2-1.4,2.7-1.4,4.3c-0.1,1.3,0.2,2.5,0.7,3.6c0.6,1,1.5,2,2.7,2.8c1.2,0.8,2.8,1.6,4.6,2.2c1.9,0.7,4.1,1.3,6.7,1.8l8.9,1.9
	c6,1.3,11.2,3,15.5,5.1c4.3,2.1,7.8,4.6,10.5,7.4c2.7,2.8,4.7,6,6,9.5c1.3,3.5,2,7.3,2,11.5c0,7.2-1.8,13.2-5.4,18.2
	c-3.5,5-8.6,8.7-15.2,11.3c-6.6,2.6-14.5,3.9-23.7,3.9c-9.5,0-17.7-1.4-24.8-4.2c-7-2.8-12.5-7.1-16.4-12.9
	c-3.9-5.9-5.8-13.3-5.9-22.5h28.1c0.2,3.3,1,6.1,2.5,8.4c1.5,2.3,3.6,4,6.3,5.2c2.7,1.2,6,1.8,9.7,1.8c3.2,0,5.8-0.4,7.9-1.2
	c2.1-0.8,3.7-1.9,4.8-3.2c1.1-1.4,1.7-3,1.7-4.7c0-1.7-0.6-3.1-1.7-4.4c-1-1.3-2.7-2.4-5.1-3.4c-2.4-1-5.6-2-9.6-2.9l-10.9-2.3
	c-9.7-2.1-17.3-5.6-22.8-10.5c-5.5-4.9-8.3-11.7-8.3-20.2c0-6.9,1.8-13,5.5-18.2c3.8-5.2,9-9.3,15.6-12.2c6.7-2.9,14.3-4.4,22.9-4.4
	c8.8,0,16.4,1.5,22.8,4.4c6.4,2.9,11.4,7.1,14.9,12.5c3.5,5.3,5.3,11.6,5.3,18.7H746z"/>
<path class="st1" d="M665.7,20.5v109H641l-39.4-57.3H601v57.3h-29.6v-109h25.1l38.8,57.1h0.9V20.5H665.7z"/>
<path class="st1" d="M549.8,20.5v109h-29.6v-109H549.8z"/>
<path class="st2" d="M499.1,75c0,12.1-2.4,22.4-7.1,30.7c-4.7,8.3-11.1,14.6-19.1,18.9c-8,4.3-17,6.4-26.8,6.4
	c-9.9,0-18.9-2.1-26.9-6.4c-8-4.3-14.3-10.6-19.1-19c-4.7-8.3-7-18.5-7-30.6c0-12.1,2.3-22.4,7-30.7c4.7-8.3,11.1-14.6,19.1-18.9
	c8-4.3,17-6.4,26.9-6.4c9.9,0,18.8,2.1,26.8,6.4c8,4.3,14.4,10.6,19.1,18.9C496.7,52.6,499.1,62.9,499.1,75z M468.6,75
	c0-6.5-0.9-12-2.6-16.5c-1.7-4.5-4.2-7.9-7.6-10.2c-3.3-2.3-7.5-3.5-12.4-3.5c-4.9,0-9,1.2-12.4,3.5c-3.3,2.3-5.9,5.7-7.6,10.2
	c-1.7,4.5-2.6,10-2.6,16.5s0.9,12,2.6,16.6c1.7,4.5,4.3,7.9,7.6,10.2c3.4,2.3,7.5,3.5,12.4,3.5c4.9,0,9-1.2,12.4-3.5
	c3.4-2.3,5.9-5.7,7.6-10.2C467.7,87,468.6,81.5,468.6,75z"/>
<path class="st2" d="M372.5,61.4h-30c-0.2-2.5-0.8-4.7-1.7-6.8c-0.9-2-2.1-3.8-3.7-5.2c-1.6-1.5-3.5-2.6-5.7-3.4
	c-2.2-0.8-4.8-1.2-7.6-1.2c-5,0-9.2,1.2-12.6,3.6c-3.4,2.4-6,5.9-7.8,10.4c-1.7,4.5-2.6,9.9-2.6,16.2c0,6.7,0.9,12.3,2.7,16.8
	c1.8,4.5,4.4,7.8,7.8,10.1c3.4,2.2,7.5,3.4,12.3,3.4c2.7,0,5.2-0.3,7.3-1c2.2-0.7,4-1.7,5.6-3c1.6-1.3,2.9-2.9,3.9-4.7
	c1-1.9,1.7-4,2.1-6.3l30,0.2c-0.4,4.6-1.6,9.3-3.9,14.1c-2.2,4.8-5.4,9.2-9.5,13.2c-4.1,4-9.1,7.2-15.2,9.7c-6,2.4-13,3.7-21,3.7
	c-10,0-19-2.1-26.9-6.4c-7.9-4.3-14.2-10.6-18.8-19c-4.6-8.3-6.9-18.5-6.9-30.6c0-12.1,2.3-22.4,7-30.7c4.7-8.3,11-14.6,19-18.9
	c7.9-4.3,16.8-6.4,26.6-6.4c6.9,0,13.2,0.9,19,2.8c5.8,1.9,10.9,4.6,15.2,8.3c4.4,3.6,7.9,8,10.5,13.3
	C370.3,48.6,372,54.6,372.5,61.4z"/>
<path class="st2" d="M170,129.5v-109h78.6v23.8h-49v18.7h44.9v23.8h-44.9v18.7h48.8v23.8H170z"/>
</svg>
